<svg width="32" height="32" viewBox="0 0 830 830" fill="none" xmlns="http://www.w3.org/2000/svg">
<defs>
<linearGradient id="fg" gradientUnits="userSpaceOnUse" x1="359.28" y1="773.78" x2="440.23" y2="45.36">
<stop offset="0" stop-color="#6943D3"/>
<stop offset="1" stop-color="#9657D5"/>
</linearGradient>
</defs>
<path fill="url(#fg)" d="M422.593 165.416C420.991 164.822 419.398 164.2 417.817 163.552C401.252 156.64 388.081 145.052 381.365 128.176C375.519 113.485 376.148 96.4672 382.504 82.047C389.241 66.8415 401.85 55.0128 417.454 49.2586C433.513 43.2651 451.3 43.9282 466.868 51.1008C481.387 57.6361 492.665 69.7401 498.16 84.6843C503.652 99.7695 503.042 117.974 496.149 132.506C488.34 148.972 474.068 159.926 457.164 165.989L457.106 276.185C476.101 276.969 514.56 292.146 527.926 305.928C536.54 296.343 545.993 287.544 555.205 278.542C570.649 263.451 586.222 248.33 601.116 232.693C600.555 230.677 600.173 228.621 599.859 226.553C597.923 213.157 601.32 199.536 609.319 188.618C617.466 177.749 629.572 170.534 643.007 168.539C656.374 166.672 669.933 170.204 680.69 178.355C691.651 186.68 699.451 199.41 701.248 213.14C702.917 225.901 698.602 240.506 690.671 250.567C682.293 261.018 670.147 267.762 656.847 269.345C644.514 270.787 631.936 267.647 622.149 259.95C611.813 270.854 600.86 281.223 590.141 291.75L551.439 330.263C566.711 347.868 574.87 373.261 578.344 395.993C588.018 395.739 597.705 396.122 607.379 396.212C616.891 396.301 626.179 395.962 635.68 396.911C638.952 387.849 645.947 380.378 654.107 375.43C664.754 368.975 678.022 367.241 690.062 370.28C702.042 373.338 712.305 381.055 718.57 391.714C724.896 402.525 726.671 415.405 723.505 427.524C720.56 439.104 713.036 448.992 702.659 454.917C691.467 461.442 677.589 462.865 665.133 459.466C650.811 455.558 642.139 445.152 635.027 432.756C616.396 433.03 597.583 432.531 578.965 431.755C578.146 446.809 573.189 462.074 566.62 475.541C579.324 487.808 591.532 500.667 603.972 513.205C614.684 524 625.689 534.52 636.35 545.357C643.213 552.334 651.696 560.915 655.046 570.21C656.542 574.361 657.04 579.009 657.299 583.385C657.944 594.275 657.136 605.461 657.11 616.388C657.069 633.444 657.548 650.533 657.333 667.579C657.248 674.384 656.869 680.96 651.591 685.933C648.12 689.229 643.454 690.966 638.673 690.743C631.793 690.398 625.813 685.293 623.677 678.865C621.386 671.971 622.445 662.995 622.522 655.794L622.872 613.179C622.969 604.122 623.95 594.045 622.27 585.133C621.622 581.69 619.938 579.117 617.823 576.408C612 568.947 604.726 562.375 598.001 555.733L568.643 526.588C561.718 519.785 554.338 513.087 547.924 505.806C530.092 527.26 506.212 542.845 479.395 550.53C471.89 552.65 464.168 553.874 456.496 555.214C457.403 565.543 456.719 577.955 456.743 588.478L456.739 658.192C475.335 666.085 490.731 677.586 498.457 696.861C504.51 711.961 503.881 731.025 497.419 745.896C490.692 761.127 478.216 773.08 462.711 779.148C446.436 785.428 427.633 784.511 411.774 777.363C396.847 770.635 385.168 757.505 379.507 742.206C373.781 726.735 374.661 707.634 381.618 692.696C389.525 675.718 404.298 664.713 421.529 658.361C421.029 643.994 421.372 629.672 421.399 615.304C421.274 595.242 421.328 575.18 421.562 555.12C387.662 549.425 365.405 538.294 339.788 515.357C336.427 519.763 332.038 523.64 328.066 527.493L308.96 545.945C294.965 559.623 281.648 574.297 266.987 587.243C274.213 597.437 278.231 608.337 277.525 620.93C276.904 633.336 271.277 644.96 261.931 653.143C252.077 661.901 239.232 665.754 226.142 664.908C213.096 664.065 201.603 658.062 193.053 648.232C184.791 638.648 180.708 626.158 181.713 613.545C182.696 599.844 188.422 588.205 198.867 579.318C209.61 570.177 221.983 568.033 235.745 569.107C239.766 565.996 243.29 562.049 246.862 558.438L262.645 542.608L319.007 486.975C308.897 470.214 302.532 451.464 300.349 432.013C277.296 431.59 254.126 432.137 231.068 432.39C220.831 432.502 207.188 433.679 197.268 432.044C190.351 450.315 182.466 461.823 164.39 470.754C149.619 478.052 131.085 479.164 115.512 473.727C100.076 468.339 87.0179 456.019 80.0108 441.34C72.7498 425.783 71.8926 407.996 77.6237 391.813C83.1886 376.556 94.5937 364.139 109.324 357.3C124.629 350.07 142.197 349.296 158.078 355.151C174.965 361.379 187.151 373.934 194.603 390.091C195.368 391.99 196.314 393.941 196.85 395.913L261.826 396.11C273.114 396.135 284.692 395.63 295.942 396.321C297.339 396.375 298.735 396.521 300.128 396.638C300.966 388.102 303.32 379.758 303.879 371.194C304.453 362.397 304.066 353.428 304.049 344.608L304.048 300.025C300.885 295.479 296.554 291.537 292.663 287.605C283.635 278.481 273.984 269.757 266.022 259.66C265.183 260.175 264.323 260.656 263.446 261.104C249.883 267.876 234.182 268.969 219.812 264.141C206.115 259.615 194.654 249.19 188.25 236.324C181.709 223.179 181.306 207.087 186.085 193.306C190.796 179.869 200.657 168.856 213.495 162.698C226.78 156.286 243.073 155.356 256.953 160.357C271.067 165.5 282.511 176.117 288.695 189.807C295.599 204.831 294.391 219.963 288.715 235.064C296.286 242.913 303.702 250.932 311.408 258.647C317.84 265.087 324.73 271.29 330.778 278.089C332.731 280.283 335.122 282.902 336.238 285.648C339.361 293.336 338.148 309.952 337.611 318.518C362.193 293.789 387.904 280.804 422.51 275.897C421.678 258.01 422.239 240.054 422.222 222.158C422.203 203.27 421.609 184.281 422.593 165.416ZM448.024 518.179C504.673 513.526 546.818 463.819 542.142 407.172C537.467 350.524 487.743 308.4 431.097 313.099C374.484 317.795 332.389 367.484 337.062 424.099C341.735 480.714 391.407 522.829 448.024 518.179ZM442.756 750.501C459.196 748.606 471.055 733.842 469.361 717.38C467.667 700.917 453.049 688.878 436.568 690.371C425.725 691.353 416.248 698.09 411.758 708.008C407.268 717.926 408.458 729.492 414.874 738.287C421.29 747.083 431.941 751.748 442.756 750.501ZM674.669 398.605C665.519 400.601 659.719 409.636 661.715 418.786C663.711 427.936 672.747 433.736 681.897 431.74C691.047 429.745 696.846 420.709 694.851 411.559C692.855 402.409 683.819 396.609 674.669 398.605ZM435.539 78.0545C419.664 80.4327 408.721 95.2275 411.094 111.103C413.467 126.979 428.258 137.928 444.135 135.56C460.019 133.191 470.973 118.391 468.599 102.508C466.225 86.6247 451.422 75.6752 435.539 78.0545ZM228.012 599.988C218.456 600.935 211.492 609.474 212.488 619.026C213.484 628.578 222.059 635.497 231.606 634.453C241.083 633.415 247.942 624.916 246.954 615.433C245.965 605.95 237.5 599.048 228.012 599.988ZM235.882 188.67C222.702 189.996 213.118 201.794 214.522 214.966C215.925 228.139 227.78 237.652 240.944 236.171C253.998 234.702 263.416 222.967 262.024 209.904C260.632 196.842 248.952 187.355 235.882 188.67ZM648.978 199.172C637.756 199.886 629.267 209.609 630.073 220.825C630.88 232.04 640.672 240.448 651.881 239.55C662.959 238.661 671.249 229.007 670.452 217.921C669.655 206.836 660.069 198.466 648.978 199.172ZM134.808 384.372C118.403 385.367 105.886 399.43 106.8 415.839C107.713 432.249 121.715 444.835 138.128 444.003C154.657 443.164 167.351 429.043 166.431 412.519C165.511 395.995 151.327 383.371 134.808 384.372Z"/>
<path fill="#7D4BD2" d="M433.987 351.931C469.344 348.808 500.508 375.012 503.499 410.381C506.49 445.749 480.17 476.815 444.791 479.674C409.597 482.518 378.731 456.366 375.756 421.184C372.78 386.002 398.816 355.038 433.987 351.931Z"/>
</svg>
